<svg width="35" height="35" viewBox="0 0 35 35" fill="none" xmlns="http://www.w3.org/2000/svg">
<path fill-rule="evenodd" clip-rule="evenodd" d="M16 5C14.3431 5 13 6.34315 13 8C13 9.65685 14.3431 11 16 11C17.6569 11 19 9.65685 19 8C19 6.34315 17.6569 5 16 5ZM11 8C11 5.23858 13.2386 3 16 3C18.7614 3 21 5.23858 21 8C21 10.7614 18.7614 13 16 13C13.2386 13 11 10.7614 11 8Z" fill="red"/>
<path d="M13 8C13 6.34315 14.3431 5 16 5C17.6569 5 19 6.34315 19 8C19 9.65685 17.6569 11 16 11C14.3431 11 13 9.65685 13 8Z" fill="red"/>
<path d="M14.6166 17.1074L16 18.2177L17.3833 17.1074C16.9542 17.0378 16.4939 17 16 17C15.506 17 15.0458 17.0378 14.6166 17.1074Z" fill="red"/>
<path fill-rule="evenodd" clip-rule="evenodd" d="M16 17C15.506 17 15.0458 17.0378 14.6166 17.1074L13.1317 15.3978C13.9947 15.1422 14.9486 15 16 15C17.1841 15 18.2447 15.1804 19.1909 15.5L17.3833 17.1074C16.9542 17.0378 16.4939 17 16 17ZM15.8892 25.9939H16.1107C16.0371 26.002 15.9628 26.002 15.8892 25.9939Z" fill="red"/>
<path d="M19.6302 17.8685L17.2919 19.7453L18.8682 22.5039C19.0919 22.8954 19.0259 23.3882 18.7071 23.7071L16.7071 25.7071C16.54 25.8742 16.3286 25.9697 16.1107 25.9939H24.8876H25.1104C25.6593 25.9329 26.0548 25.4385 25.9938 24.8896L25 25C25.9938 24.8896 25.9937 24.8879 25.9937 24.8879L25.9934 24.8856L25.9927 24.8793L25.9904 24.8601C25.9884 24.8444 25.9857 24.8228 25.982 24.7956C25.9747 24.7414 25.9636 24.665 25.948 24.5689C25.9168 24.377 25.8672 24.1058 25.7922 23.7761C25.6426 23.1186 25.3896 22.2179 24.9739 21.2432C24.3267 19.7256 23.2534 17.9582 21.5 16.6895L19.6302 17.8685Z" fill="red"/>
<path d="M15.2929 25.7071L13.2929 23.7071C12.974 23.3882 12.908 22.8954 13.1317 22.5039L14.708 19.7453L12.3698 17.8685L10.7727 16.5C8.85677 17.7779 7.70618 19.6485 7.02606 21.2432C6.61034 22.2179 6.35733 23.1186 6.20773 23.7761C6.13272 24.1058 6.08314 24.377 6.05193 24.5689C6.03632 24.665 6.02527 24.7414 6.01793 24.7956C6.01425 24.8228 6.0115 24.8444 6.00956 24.8601L6.00725 24.8793L6.00653 24.8856L6.00627 24.8879L6.00608 24.8896C5.94509 25.4385 6.34063 25.9329 6.88953 25.9939H7.11206H15.8892C15.6713 25.9697 15.4599 25.8742 15.2929 25.7071Z" fill="red"/>
<path d="M15.2472 22.833L16 21.5156L16.7528 22.833L16 23.5858L15.2472 22.833Z" fill="red"/>
</svg>
