                <svg
                  width="35"
                  height="35"
                  viewBox="0 0 20 25"
                  xmlns="http://www.w3.org/2000/svg"
                >
                  <path
                    d="M2 22C1.45 22 0.979002 21.804 0.587002 21.412C0.195002 21.02 -0.000664969 20.5493 1.69779e-06 20V6H2V20H13V22H2ZM6 18C5.45 18 4.979 17.804 4.587 17.412C4.195 17.02 3.99934 16.5493 4 16V2C4 1.45 4.196 0.979002 4.588 0.587002C4.98 0.195002 5.45067 -0.000664969 6 1.69779e-06H13L19 6V16C19 16.55 18.804 17.021 18.412 17.413C18.02 17.805 17.5493 18.0007 17 18H6ZM12 7H17L12 2V7Z"
                  />
                </svg>