<svg width="24" height="24" viewBox="0 0 24 24" fill="none" xmlns="http://www.w3.org/2000/svg">
<path fill-rule="evenodd" clip-rule="evenodd" d="M2.25 1.5C2.66421 1.5 3 1.83579 3 2.25V21H21.75C22.1642 21 22.5 21.3358 22.5 21.75C22.5 22.1642 22.1642 22.5 21.75 22.5H2.25C1.83579 22.5 1.5 22.1642 1.5 21.75V2.25C1.5 1.83579 1.83579 1.5 2.25 1.5Z" fill="black"/>
<path fill-rule="evenodd" clip-rule="evenodd" d="M22.0134 4.54771C22.4012 4.69315 22.5977 5.12546 22.4523 5.5133L19.0773 14.5133C18.9675 14.806 18.6877 15 18.375 15H14.6514L11.8741 19.166C11.7494 19.3529 11.5475 19.4742 11.3239 19.4963C11.1003 19.5184 10.8786 19.4392 10.7197 19.2803L8.56287 17.1235L5.71049 19.342C5.38353 19.5963 4.91232 19.5374 4.65802 19.2104C4.40372 18.8835 4.46262 18.4122 4.78958 18.1579L8.16458 15.5329C8.46315 15.3007 8.88791 15.3272 9.15536 15.5946L11.1335 17.5727L13.626 13.8339C13.7651 13.6253 13.9993 13.5 14.25 13.5H17.8553L21.0478 4.98662C21.1932 4.59878 21.6255 4.40227 22.0134 4.54771Z" fill="black"/>
</svg>
