<svg width="35" height="35" viewBox="0 0 35 35" fill="none" xmlns="http://www.w3.org/2000/svg">
<path fill-rule="evenodd" clip-rule="evenodd" d="M10.9375 5.46875C10.9375 4.86469 11.4272 4.375 12.0312 4.375H22.9688C23.5728 4.375 24.0625 4.86469 24.0625 5.46875V9.84375C24.0625 10.4478 23.5728 10.9375 22.9688 10.9375H12.0312C11.4272 10.9375 10.9375 10.4478 10.9375 9.84375V5.46875ZM13.125 6.5625V8.75H21.875V6.5625H13.125Z" fill="orange"/>
<path fill-rule="evenodd" clip-rule="evenodd" d="M2.1875 9.84375C2.1875 9.23969 2.67719 8.75 3.28125 8.75H31.7188C32.3228 8.75 32.8125 9.23969 32.8125 9.84375V29.5312C32.8125 30.1353 32.3228 30.625 31.7188 30.625H3.28125C2.67719 30.625 2.1875 30.1353 2.1875 29.5312V9.84375ZM4.375 10.9375V28.4375H30.625V10.9375H4.375Z" fill="orange"/>
<path d="M4.375 28.4375V10.9375H30.625V28.4375H4.375Z" fill="orange"/>
<path d="M19.7087 19.902C19.8272 20.4943 20.4034 20.8785 20.9958 20.76L30.625 18.8342V16.6033L20.5667 18.615C19.9744 18.7335 19.5903 19.3097 19.7087 19.902Z" fill="white"/>
<path d="M14.4333 18.615L4.375 16.6033V18.8342L14.0042 20.76C14.5966 20.8785 15.1728 20.4943 15.2913 19.902C15.4097 19.3097 15.0256 18.7335 14.4333 18.615Z" fill="white"/>
<path fill-rule="evenodd" clip-rule="evenodd" d="M14.2188 17.5C14.2188 16.8959 14.7084 16.4062 15.3125 16.4062H19.6875C20.2916 16.4062 20.7812 16.8959 20.7812 17.5V21.875C20.7812 22.4791 20.2916 22.9688 19.6875 22.9688H15.3125C14.7084 22.9688 14.2188 22.4791 14.2188 21.875V17.5ZM16.4062 18.5938V20.7812H18.5938V18.5938H16.4062Z" fill="white"/>
</svg>
