<svg width="35" height="35" viewBox="0 0 35 35" fill="none" xmlns="http://www.w3.org/2000/svg">
<g clip-path="url(#clip0_0_2138)">
<path d="M30.625 13.8542V18.2292C30.625 21.8531 24.7479 24.7917 17.5 24.7917C10.2521 24.7917 4.375 21.8531 4.375 18.2292V13.8542C4.375 17.4781 10.2521 20.4167 17.5 20.4167C24.7479 20.4167 30.625 17.4781 30.625 13.8542ZM4.375 21.1458C4.375 24.7698 10.2521 27.7083 17.5 27.7083C24.7479 27.7083 30.625 24.7698 30.625 21.1458V25.5208C30.625 29.1448 24.7479 32.0833 17.5 32.0833C10.2521 32.0833 4.375 29.1448 4.375 25.5208V21.1458ZM17.5 17.5C10.2521 17.5 4.375 14.5615 4.375 10.9375C4.375 7.31354 10.2521 4.375 17.5 4.375C24.7479 4.375 30.625 7.31354 30.625 10.9375C30.625 14.5615 24.7479 17.5 17.5 17.5Z" fill="green"/>
</g>
<defs>
<clipPath id="clip0_0_2138">
<rect width="35" height="35" fill="red"/>
</clipPath>
</defs>
</svg>
