<svg width="35" height="35" viewBox="0 0 35 35" fill="none" xmlns="http://www.w3.org/2000/svg">
<g clip-path="url(#clip0_0_4200)">
<path d="M4.37499 4.375H30.625C31.0118 4.375 31.3827 4.52865 31.6562 4.80214C31.9297 5.07563 32.0833 5.44656 32.0833 5.83333V29.1667C32.0833 29.5534 31.9297 29.9244 31.6562 30.1979C31.3827 30.4714 31.0118 30.625 30.625 30.625H4.37499C3.98822 30.625 3.61728 30.4714 3.34379 30.1979C3.0703 29.9244 2.91666 29.5534 2.91666 29.1667V5.83333C2.91666 5.44656 3.0703 5.07563 3.34379 4.80214C3.61728 4.52865 3.98822 4.375 4.37499 4.375V4.375ZM14.6562 16.0417C14.7826 15.4214 15.0682 14.8447 15.4851 14.3683C15.9019 13.892 16.4357 13.5324 17.0337 13.3249C17.6317 13.1174 18.2735 13.0692 18.8958 13.185C19.5181 13.3008 20.0996 13.5767 20.5829 13.9854L23.0635 12.3331C22.2117 11.4053 21.1109 10.7422 19.8924 10.423C18.674 10.1038 17.3894 10.1419 16.1921 10.5329C14.9947 10.924 13.9352 11.6513 13.14 12.6281C12.3448 13.6049 11.8475 14.7899 11.7075 16.0417H10.2083V18.9583H11.706C11.8458 20.2104 12.3431 21.3958 13.1384 22.3729C13.9337 23.35 14.9934 24.0775 16.191 24.4685C17.3886 24.8596 18.6735 24.8977 19.8922 24.5782C21.1108 24.2587 22.2118 23.5952 23.0635 22.6669L20.5829 21.0131C20.0997 21.4219 19.5183 21.6978 18.8961 21.8137C18.2739 21.9296 17.6322 21.8815 17.0342 21.6741C16.4362 21.4668 15.9025 21.1074 15.4855 20.6312C15.0686 20.155 14.7828 19.5785 14.6562 18.9583L21.875 18.9598V16.0431H14.6562V16.0417Z" fill="#E9AE0B"/>
</g>
<defs>
<clipPath id="clip0_0_4200">
<rect width="35" height="35" fill="white"/>
</clipPath>
</defs>
</svg>
