<svg width="35" height="35" viewBox="0 0 35 35" fill="none" xmlns="http://www.w3.org/2000/svg">
<path fill-rule="evenodd" clip-rule="evenodd" d="M6.5625 5.46875C6.5625 4.86469 7.05219 4.375 7.65625 4.375H27.3438C27.9478 4.375 28.4375 4.86469 28.4375 5.46875V29.5312C28.4375 30.1353 27.9478 30.625 27.3438 30.625H7.65625C7.05219 30.625 6.5625 30.1353 6.5625 29.5312V5.46875ZM8.75 6.5625V28.4375H26.25V6.5625H8.75Z" fill="blue"/>
<path fill-rule="evenodd" clip-rule="evenodd" d="M10.9375 5.46875C10.9375 4.86469 11.4272 4.375 12.0312 4.375H22.9688C23.5728 4.375 24.0625 4.86469 24.0625 5.46875V9.84375C24.0625 10.4478 23.5728 10.9375 22.9688 10.9375H12.0312C11.4272 10.9375 10.9375 10.4478 10.9375 9.84375V5.46875ZM13.125 6.5625V8.75H21.875V6.5625H13.125Z" fill="blue"/>
<path fill-rule="evenodd" clip-rule="evenodd" d="M9.84375 14.2188C9.84375 13.6147 10.3711 13.125 11.0216 13.125H23.9784C24.6289 13.125 25.1562 13.6147 25.1562 14.2188C25.1562 14.8228 24.6289 15.3125 23.9784 15.3125H11.0216C10.3711 15.3125 9.84375 14.8228 9.84375 14.2188Z" fill="blue"/>
<path fill-rule="evenodd" clip-rule="evenodd" d="M19.6875 21.875C19.6875 21.2709 20.1772 20.7813 20.7812 20.7813L24.0625 20.7813C24.6666 20.7813 25.1562 21.2709 25.1562 21.875C25.1562 22.4791 24.6666 22.9688 24.0625 22.9688L20.7812 22.9688C20.1772 22.9688 19.6875 22.4791 19.6875 21.875Z" fill="blue"/>
<path fill-rule="evenodd" clip-rule="evenodd" d="M19.6875 18.5938C19.6875 17.9897 20.1772 17.5 20.7812 17.5L24.0625 17.5C24.6666 17.5 25.1562 17.9897 25.1562 18.5938C25.1562 19.1978 24.6666 19.6875 24.0625 19.6875L20.7812 19.6875C20.1772 19.6875 19.6875 19.1978 19.6875 18.5938Z" fill="blue"/>
<path fill-rule="evenodd" clip-rule="evenodd" d="M19.6875 25.1562C19.6875 24.5522 20.1772 24.0625 20.7812 24.0625L24.0625 24.0625C24.6666 24.0625 25.1562 24.5522 25.1562 25.1563C25.1562 25.7603 24.6666 26.25 24.0625 26.25L20.7812 26.25C20.1772 26.25 19.6875 25.7603 19.6875 25.1562Z" fill="blue"/>
<path fill-rule="evenodd" clip-rule="evenodd" d="M9.84375 17.5C9.84375 16.8959 10.3334 16.4062 10.9375 16.4062H17.5C18.1041 16.4062 18.5938 16.8959 18.5938 17.5V26.25C18.5938 26.8541 18.1041 27.3438 17.5 27.3438H10.9375C10.3334 27.3438 9.84375 26.8541 9.84375 26.25V17.5ZM12.0312 18.5938V25.1562H16.4062V18.5938H12.0312Z" fill="blue"/>
</svg>
