<svg width="24" height="24" viewBox="0 0 24 24" fill="none" xmlns="http://www.w3.org/2000/svg">
<path d="M12.0509 21.949C6.72599 21.9444 2.33866 17.7679 2.07207 12.4497C1.80547 7.13142 5.75314 2.53708 11.0509 2V6.04C8.04151 6.54858 5.8948 9.23721 6.06503 12.2845C6.23527 15.3318 8.66808 17.7646 11.7154 17.9349C14.7627 18.1051 17.4513 15.9584 17.9599 12.949H21.9999C21.4797 18.0555 17.1829 21.9421 12.0499 21.949H12.0509ZM22.0009 10.949H17.9609C17.5353 8.4347 15.5653 6.46506 13.0509 6.04V2C17.778 2.48398 21.5154 6.22098 21.9999 10.948L22.0009 10.949Z" fill="yellow"/>
</svg>
